<svg width="28" height="30" fill="none" xmlns="http://www.w3.org/2000/svg"><g filter="url(#a)"><path stroke="#fff" stroke-width="2" stroke-linecap="round" d="M13 3h2"/><path fill-rule="evenodd" clip-rule="evenodd" d="M9.76634 3.38149C9.58482 3.14123 9.30113 3 9 3c-1.10457 0-2 .89543-2 2v15c0 1.1046.89543 2 2 2h10c1.1046 0 2-.8954 2-2V5c0-1.10457-.8954-2-2-2-.3011 0-.5848.14123-.7663.38149l-1.3303 1.76079c-.189.25015-.4844.39719-.7979.39719h-4.211c-.3135 0-.6089-.14704-.7979-.39719L9.76634 3.38149Z" fill="#fff"/></g><defs><filter id="a" x="-2" y="0" width="32" height="32" filterUnits="userSpaceOnUse" color-interpolation-filters="sRGB"><feFlood flood-opacity="0" result="BackgroundImageFix"/><feColorMatrix in="SourceAlpha" values="0 0 0 0 0 0 0 0 0 0 0 0 0 0 0 0 0 0 127 0" result="hardAlpha"/><feOffset dy="4"/><feGaussianBlur stdDeviation="2"/><feComposite in2="hardAlpha" operator="out"/><feColorMatrix values="0 0 0 0 0 0 0 0 0 0 0 0 0 0 0 0 0 0 0.25 0"/><feBlend in2="BackgroundImageFix" result="effect1_dropShadow_108_69"/><feBlend in="SourceGraphic" in2="effect1_dropShadow_108_69" result="shape"/></filter></defs></svg>